<mxfile host="app.diagrams.net" agent="Mozilla/5.0 (Macintosh; Intel Mac OS X 10_15_7) AppleWebKit/537.36 (KHTML, like Gecko) Chrome/134.0.0.0 Safari/537.36" version="26.1.1">
  <diagram name="Page-1" id="MRb5uCG9nDxhMFhYml2R">
    <mxGraphModel dx="2483" dy="2148" grid="1" gridSize="10" guides="1" tooltips="1" connect="1" arrows="1" fold="1" page="1" pageScale="1" pageWidth="827" pageHeight="1169" math="0" shadow="0">
      <root>
        <mxCell id="0" />
        <mxCell id="1" parent="0" />
        <mxCell id="POLqdUyjnNDvbQUns-w0-1" value="" style="rounded=0;whiteSpace=wrap;html=1;" vertex="1" parent="1">
          <mxGeometry x="-10" y="-50" width="890" height="550" as="geometry" />
        </mxCell>
        <mxCell id="POLqdUyjnNDvbQUns-w0-2" value="Chatbot" style="rounded=1;whiteSpace=wrap;html=1;" vertex="1" parent="1">
          <mxGeometry x="-180" y="140" width="120" height="60" as="geometry" />
        </mxCell>
        <mxCell id="POLqdUyjnNDvbQUns-w0-3" value="" style="rounded=1;whiteSpace=wrap;html=1;" vertex="1" parent="1">
          <mxGeometry x="190" y="60" width="530" height="365" as="geometry" />
        </mxCell>
        <mxCell id="POLqdUyjnNDvbQUns-w0-7" style="edgeStyle=orthogonalEdgeStyle;rounded=0;orthogonalLoop=1;jettySize=auto;html=1;exitX=0.5;exitY=1;exitDx=0;exitDy=0;entryX=0;entryY=0.5;entryDx=0;entryDy=0;" edge="1" parent="1" source="POLqdUyjnNDvbQUns-w0-4" target="POLqdUyjnNDvbQUns-w0-6">
          <mxGeometry relative="1" as="geometry">
            <Array as="points">
              <mxPoint x="120" y="230" />
            </Array>
          </mxGeometry>
        </mxCell>
        <mxCell id="POLqdUyjnNDvbQUns-w0-9" value="List of skill&amp;nbsp;&lt;div&gt;matching interviewers&lt;/div&gt;" style="edgeLabel;html=1;align=center;verticalAlign=middle;resizable=0;points=[];" vertex="1" connectable="0" parent="POLqdUyjnNDvbQUns-w0-7">
          <mxGeometry x="0.2393" y="1" relative="1" as="geometry">
            <mxPoint x="-16" y="1" as="offset" />
          </mxGeometry>
        </mxCell>
        <mxCell id="POLqdUyjnNDvbQUns-w0-4" value="Chatbot adapter" style="rounded=1;whiteSpace=wrap;html=1;dashed=1;" vertex="1" parent="1">
          <mxGeometry x="40" y="140" width="120" height="60" as="geometry" />
        </mxCell>
        <mxCell id="POLqdUyjnNDvbQUns-w0-5" value="Availability service" style="rounded=1;whiteSpace=wrap;html=1;" vertex="1" parent="1">
          <mxGeometry x="920" y="410" width="120" height="60" as="geometry" />
        </mxCell>
        <mxCell id="POLqdUyjnNDvbQUns-w0-8" style="edgeStyle=orthogonalEdgeStyle;rounded=0;orthogonalLoop=1;jettySize=auto;html=1;exitX=0;exitY=0.5;exitDx=0;exitDy=0;entryX=1;entryY=0.5;entryDx=0;entryDy=0;" edge="1" parent="1" source="POLqdUyjnNDvbQUns-w0-5" target="POLqdUyjnNDvbQUns-w0-13">
          <mxGeometry relative="1" as="geometry">
            <Array as="points">
              <mxPoint x="890" y="440" />
              <mxPoint x="890" y="440" />
            </Array>
          </mxGeometry>
        </mxCell>
        <mxCell id="POLqdUyjnNDvbQUns-w0-20" style="edgeStyle=orthogonalEdgeStyle;rounded=0;orthogonalLoop=1;jettySize=auto;html=1;exitX=1;exitY=0.5;exitDx=0;exitDy=0;entryX=0.5;entryY=0;entryDx=0;entryDy=0;" edge="1" parent="1" source="POLqdUyjnNDvbQUns-w0-6" target="POLqdUyjnNDvbQUns-w0-15">
          <mxGeometry relative="1" as="geometry" />
        </mxCell>
        <mxCell id="POLqdUyjnNDvbQUns-w0-21" value="get available&lt;div&gt;slots&lt;/div&gt;" style="edgeLabel;html=1;align=center;verticalAlign=middle;resizable=0;points=[];" vertex="1" connectable="0" parent="POLqdUyjnNDvbQUns-w0-20">
          <mxGeometry x="0.2316" y="-3" relative="1" as="geometry">
            <mxPoint as="offset" />
          </mxGeometry>
        </mxCell>
        <mxCell id="POLqdUyjnNDvbQUns-w0-29" style="edgeStyle=orthogonalEdgeStyle;rounded=0;orthogonalLoop=1;jettySize=auto;html=1;exitX=1;exitY=0.25;exitDx=0;exitDy=0;entryX=0.75;entryY=1;entryDx=0;entryDy=0;" edge="1" parent="1" source="POLqdUyjnNDvbQUns-w0-6" target="POLqdUyjnNDvbQUns-w0-28">
          <mxGeometry relative="1" as="geometry">
            <Array as="points">
              <mxPoint x="620" y="215" />
            </Array>
          </mxGeometry>
        </mxCell>
        <mxCell id="POLqdUyjnNDvbQUns-w0-43" style="edgeStyle=orthogonalEdgeStyle;rounded=0;orthogonalLoop=1;jettySize=auto;html=1;exitX=0.75;exitY=1;exitDx=0;exitDy=0;entryX=1;entryY=0.5;entryDx=0;entryDy=0;" edge="1" parent="1" source="POLqdUyjnNDvbQUns-w0-6" target="POLqdUyjnNDvbQUns-w0-42">
          <mxGeometry relative="1" as="geometry" />
        </mxCell>
        <mxCell id="POLqdUyjnNDvbQUns-w0-44" value="saves&lt;div&gt;all slots&lt;/div&gt;" style="edgeLabel;html=1;align=center;verticalAlign=middle;resizable=0;points=[];" vertex="1" connectable="0" parent="POLqdUyjnNDvbQUns-w0-43">
          <mxGeometry x="0.4461" y="-1" relative="1" as="geometry">
            <mxPoint as="offset" />
          </mxGeometry>
        </mxCell>
        <mxCell id="POLqdUyjnNDvbQUns-w0-51" style="edgeStyle=orthogonalEdgeStyle;rounded=0;orthogonalLoop=1;jettySize=auto;html=1;exitX=0.25;exitY=0;exitDx=0;exitDy=0;entryX=1;entryY=0.5;entryDx=0;entryDy=0;" edge="1" parent="1" source="POLqdUyjnNDvbQUns-w0-6" target="POLqdUyjnNDvbQUns-w0-4">
          <mxGeometry relative="1" as="geometry" />
        </mxCell>
        <mxCell id="POLqdUyjnNDvbQUns-w0-52" value="selected slot details" style="edgeLabel;html=1;align=center;verticalAlign=middle;resizable=0;points=[];" vertex="1" connectable="0" parent="POLqdUyjnNDvbQUns-w0-51">
          <mxGeometry x="0.2068" y="-1" relative="1" as="geometry">
            <mxPoint as="offset" />
          </mxGeometry>
        </mxCell>
        <mxCell id="POLqdUyjnNDvbQUns-w0-6" value="Orchestrator" style="rounded=1;whiteSpace=wrap;html=1;" vertex="1" parent="1">
          <mxGeometry x="400" y="200" width="120" height="60" as="geometry" />
        </mxCell>
        <mxCell id="POLqdUyjnNDvbQUns-w0-10" value="" style="shape=cylinder3;whiteSpace=wrap;html=1;boundedLbl=1;backgroundOutline=1;size=15;" vertex="1" parent="1">
          <mxGeometry x="80" y="310" width="60" height="80" as="geometry" />
        </mxCell>
        <mxCell id="POLqdUyjnNDvbQUns-w0-13" value="Availability service Interactor" style="rounded=1;whiteSpace=wrap;html=1;dashed=1;" vertex="1" parent="1">
          <mxGeometry x="730" y="410" width="120" height="60" as="geometry" />
        </mxCell>
        <mxCell id="POLqdUyjnNDvbQUns-w0-22" style="edgeStyle=orthogonalEdgeStyle;rounded=0;orthogonalLoop=1;jettySize=auto;html=1;exitX=0;exitY=0.5;exitDx=0;exitDy=0;entryX=1;entryY=0.75;entryDx=0;entryDy=0;" edge="1" parent="1" source="POLqdUyjnNDvbQUns-w0-15" target="POLqdUyjnNDvbQUns-w0-6">
          <mxGeometry relative="1" as="geometry" />
        </mxCell>
        <mxCell id="POLqdUyjnNDvbQUns-w0-15" value="Slot picker" style="rounded=1;whiteSpace=wrap;html=1;" vertex="1" parent="1">
          <mxGeometry x="560" y="320" width="120" height="60" as="geometry" />
        </mxCell>
        <mxCell id="POLqdUyjnNDvbQUns-w0-23" value="Slot picker - Responsible for picking slots for next n days and returns slot maintaining the interviewer hierarchy" style="text;html=1;align=center;verticalAlign=middle;resizable=0;points=[];autosize=1;strokeColor=none;fillColor=none;" vertex="1" parent="1">
          <mxGeometry x="20" y="528" width="610" height="30" as="geometry" />
        </mxCell>
        <mxCell id="POLqdUyjnNDvbQUns-w0-25" value="" style="endArrow=classic;startArrow=classic;html=1;rounded=0;exitX=0;exitY=0.5;exitDx=0;exitDy=0;entryX=1;entryY=0.5;entryDx=0;entryDy=0;" edge="1" parent="1" source="POLqdUyjnNDvbQUns-w0-13" target="POLqdUyjnNDvbQUns-w0-15">
          <mxGeometry width="50" height="50" relative="1" as="geometry">
            <mxPoint x="630" y="400" as="sourcePoint" />
            <mxPoint x="780" y="550" as="targetPoint" />
            <Array as="points">
              <mxPoint x="700" y="440" />
              <mxPoint x="700" y="400" />
              <mxPoint x="700" y="350" />
            </Array>
          </mxGeometry>
        </mxCell>
        <mxCell id="POLqdUyjnNDvbQUns-w0-26" value="Candidate" style="shape=umlActor;verticalLabelPosition=bottom;verticalAlign=top;html=1;outlineConnect=0;" vertex="1" parent="1">
          <mxGeometry x="575" y="-180" width="30" height="60" as="geometry" />
        </mxCell>
        <mxCell id="POLqdUyjnNDvbQUns-w0-47" style="edgeStyle=orthogonalEdgeStyle;rounded=0;orthogonalLoop=1;jettySize=auto;html=1;exitX=0;exitY=0.5;exitDx=0;exitDy=0;entryX=0.5;entryY=0;entryDx=0;entryDy=0;" edge="1" parent="1" source="POLqdUyjnNDvbQUns-w0-28" target="POLqdUyjnNDvbQUns-w0-6">
          <mxGeometry relative="1" as="geometry" />
        </mxCell>
        <mxCell id="POLqdUyjnNDvbQUns-w0-49" value="Candidate selected&lt;div&gt;slot&lt;/div&gt;" style="edgeLabel;html=1;align=center;verticalAlign=middle;resizable=0;points=[];" vertex="1" connectable="0" parent="POLqdUyjnNDvbQUns-w0-47">
          <mxGeometry x="0.2247" relative="1" as="geometry">
            <mxPoint y="1" as="offset" />
          </mxGeometry>
        </mxCell>
        <mxCell id="POLqdUyjnNDvbQUns-w0-28" value="Query service" style="rounded=1;whiteSpace=wrap;html=1;" vertex="1" parent="1">
          <mxGeometry x="530" y="80" width="120" height="60" as="geometry" />
        </mxCell>
        <mxCell id="POLqdUyjnNDvbQUns-w0-30" value="Flow1: (new candidate)&lt;div&gt;1. Chatbot provides the list of skill matching interviewers to interview selector&lt;/div&gt;&lt;div&gt;2. Slot picker gets list of slots for next n days&lt;/div&gt;&lt;div&gt;3. The list of slots are saved in the database&lt;/div&gt;&lt;div&gt;4. First 3 slots are provided to candidate via a query service&lt;/div&gt;&lt;div&gt;5. Candidate picks a slot&lt;/div&gt;&lt;div&gt;6. Corresponding slot details are retrieved from DB, locked and sent back to chatbot&lt;/div&gt;" style="text;html=1;align=center;verticalAlign=middle;resizable=0;points=[];autosize=1;strokeColor=none;fillColor=none;" vertex="1" parent="1">
          <mxGeometry x="-20" y="585" width="470" height="110" as="geometry" />
        </mxCell>
        <mxCell id="POLqdUyjnNDvbQUns-w0-31" value="" style="endArrow=classic;html=1;rounded=0;exitX=0.75;exitY=0;exitDx=0;exitDy=0;entryX=1;entryY=1;entryDx=0;entryDy=0;entryPerimeter=0;" edge="1" parent="1" source="POLqdUyjnNDvbQUns-w0-28" target="POLqdUyjnNDvbQUns-w0-26">
          <mxGeometry width="50" height="50" relative="1" as="geometry">
            <mxPoint x="420" y="310" as="sourcePoint" />
            <mxPoint x="470" y="260" as="targetPoint" />
          </mxGeometry>
        </mxCell>
        <mxCell id="POLqdUyjnNDvbQUns-w0-37" value="" style="endArrow=classic;html=1;rounded=0;exitX=0;exitY=1;exitDx=0;exitDy=0;exitPerimeter=0;entryX=0.25;entryY=0;entryDx=0;entryDy=0;dashed=1;" edge="1" parent="1" source="POLqdUyjnNDvbQUns-w0-34" target="POLqdUyjnNDvbQUns-w0-28">
          <mxGeometry width="50" height="50" relative="1" as="geometry">
            <mxPoint x="420" y="310" as="sourcePoint" />
            <mxPoint x="470" y="260" as="targetPoint" />
          </mxGeometry>
        </mxCell>
        <mxCell id="POLqdUyjnNDvbQUns-w0-39" value="" style="endArrow=classic;html=1;rounded=0;exitX=0;exitY=1;exitDx=0;exitDy=0;exitPerimeter=0;entryX=0.25;entryY=0;entryDx=0;entryDy=0;dashed=1;" edge="1" parent="1" source="POLqdUyjnNDvbQUns-w0-26" target="POLqdUyjnNDvbQUns-w0-34">
          <mxGeometry width="50" height="50" relative="1" as="geometry">
            <mxPoint x="575" y="-120" as="sourcePoint" />
            <mxPoint x="560" y="80" as="targetPoint" />
          </mxGeometry>
        </mxCell>
        <mxCell id="POLqdUyjnNDvbQUns-w0-34" value="" style="points=[];aspect=fixed;html=1;align=center;shadow=0;dashed=0;fillColor=#FF6A00;strokeColor=none;shape=mxgraph.alibaba_cloud.mq_message_queue;" vertex="1" parent="1">
          <mxGeometry x="540" y="-30" width="45" height="49.8" as="geometry" />
        </mxCell>
        <mxCell id="POLqdUyjnNDvbQUns-w0-41" value="message" style="text;html=1;align=center;verticalAlign=middle;whiteSpace=wrap;rounded=0;" vertex="1" parent="1">
          <mxGeometry x="480" y="-20.100000000000023" width="60" height="30" as="geometry" />
        </mxCell>
        <mxCell id="POLqdUyjnNDvbQUns-w0-48" style="edgeStyle=orthogonalEdgeStyle;rounded=0;orthogonalLoop=1;jettySize=auto;html=1;exitX=0.5;exitY=0;exitDx=0;exitDy=0;entryX=0.25;entryY=1;entryDx=0;entryDy=0;" edge="1" parent="1" source="POLqdUyjnNDvbQUns-w0-42" target="POLqdUyjnNDvbQUns-w0-6">
          <mxGeometry relative="1" as="geometry" />
        </mxCell>
        <mxCell id="POLqdUyjnNDvbQUns-w0-50" value="get details&lt;div&gt;&lt;span style=&quot;background-color: light-dark(#ffffff, var(--ge-dark-color, #121212)); color: light-dark(rgb(0, 0, 0), rgb(255, 255, 255));&quot;&gt;by slot&lt;/span&gt;&lt;/div&gt;" style="edgeLabel;html=1;align=center;verticalAlign=middle;resizable=0;points=[];" vertex="1" connectable="0" parent="POLqdUyjnNDvbQUns-w0-48">
          <mxGeometry x="-0.1135" y="1" relative="1" as="geometry">
            <mxPoint x="1" as="offset" />
          </mxGeometry>
        </mxCell>
        <mxCell id="POLqdUyjnNDvbQUns-w0-42" value="Storage" style="rounded=1;whiteSpace=wrap;html=1;" vertex="1" parent="1">
          <mxGeometry x="220" y="320" width="110" height="60" as="geometry" />
        </mxCell>
        <mxCell id="POLqdUyjnNDvbQUns-w0-45" value="&lt;span style=&quot;font-size: 11px; text-wrap-mode: nowrap; background-color: rgb(255, 255, 255);&quot;&gt;stores candidate,&lt;/span&gt;&lt;br style=&quot;font-size: 11px; text-wrap-mode: nowrap;&quot;&gt;&lt;span style=&quot;font-size: 11px; text-wrap-mode: nowrap; background-color: rgb(255, 255, 255);&quot;&gt;matching interviewers,&lt;/span&gt;&lt;div style=&quot;font-size: 11px; text-wrap-mode: nowrap;&quot;&gt;and their availabilities&lt;/div&gt;" style="text;html=1;align=center;verticalAlign=middle;whiteSpace=wrap;rounded=0;" vertex="1" parent="1">
          <mxGeometry x="80" y="400" width="60" height="30" as="geometry" />
        </mxCell>
        <mxCell id="POLqdUyjnNDvbQUns-w0-46" style="edgeStyle=orthogonalEdgeStyle;rounded=0;orthogonalLoop=1;jettySize=auto;html=1;exitX=0;exitY=0.5;exitDx=0;exitDy=0;entryX=1;entryY=0.5;entryDx=0;entryDy=0;entryPerimeter=0;" edge="1" parent="1" source="POLqdUyjnNDvbQUns-w0-42" target="POLqdUyjnNDvbQUns-w0-10">
          <mxGeometry relative="1" as="geometry" />
        </mxCell>
        <mxCell id="POLqdUyjnNDvbQUns-w0-53" value="" style="endArrow=classic;startArrow=classic;html=1;rounded=0;exitX=1;exitY=0.5;exitDx=0;exitDy=0;entryX=0;entryY=0.5;entryDx=0;entryDy=0;" edge="1" parent="1" source="POLqdUyjnNDvbQUns-w0-2" target="POLqdUyjnNDvbQUns-w0-4">
          <mxGeometry width="50" height="50" relative="1" as="geometry">
            <mxPoint x="420" y="330" as="sourcePoint" />
            <mxPoint x="470" y="280" as="targetPoint" />
          </mxGeometry>
        </mxCell>
        <mxCell id="POLqdUyjnNDvbQUns-w0-54" value="Interviewer selection service" style="text;html=1;align=center;verticalAlign=middle;whiteSpace=wrap;rounded=0;" vertex="1" parent="1">
          <mxGeometry x="40" y="-50" width="140" height="30" as="geometry" />
        </mxCell>
        <mxCell id="POLqdUyjnNDvbQUns-w0-55" value="Flow 2:(already processed candidate, re-schedule)&lt;div&gt;1. List of interviewers and slots are already stored in DB&lt;/div&gt;&lt;div&gt;2. Orchestrator exposes a UseCase to get next slot for the candidate&lt;/div&gt;&lt;div&gt;3. The slot details are returned from DB and locked to prevent further reading&lt;/div&gt;" style="text;html=1;align=center;verticalAlign=middle;whiteSpace=wrap;rounded=0;" vertex="1" parent="1">
          <mxGeometry x="570" y="620" width="335" height="30" as="geometry" />
        </mxCell>
      </root>
    </mxGraphModel>
  </diagram>
</mxfile>
